<svg xmlns="http://www.w3.org/2000/svg" width="383.203" height="281.484" viewBox="0 0 383.203 281.484">
  <g id="Groupe_6397" data-name="Groupe 6397" transform="translate(-2697 -409.639)">
    <path id="Tracé_7420" data-name="Tracé 7420" d="M0,120.047c2-4.721,3.4-9.819,6.109-14.089,6.5-10.253,15.759-16.629,28.268-17.356,4.956-.288,9.921-.616,14.882-.618q146.508-.054,293.017-.015c13.823,0,25.567,4.55,33.826,16.2,3.853,5.437,6.421,11.45,6.449,18.2.293,69.075.728,138.15.64,207.224-.027,20.549-11.718,35.613-34.361,39.7a32.086,32.086,0,0,1-5.6-.006q-153.057-.025-306.114-.033c-16.833,0-34.227-14.56-36.463-31.548A4.251,4.251,0,0,0,0,336.449V174.709c.4-.28.917-.477,1.164-.854,1.995-3.038,5.291-2.727,7.718-1.843,1.7.617,2.776,3.376,3.738,5.368.491,1.016.132,2.45.132,3.695q0,73.422.013,146.844c0,1.862.157,3.723.241,5.584q-.039.708-.077,1.416a33.51,33.51,0,0,0,1.252,4.507c3.866,8.989,10.176,15.059,20.2,16.569l4.587.461c1.246.026,2.493.076,3.74.076q148.947,0,297.894,0c1.246,0,2.492-.061,3.739-.094l.828.119.345.06.347-.05A26.433,26.433,0,0,0,363.9,348c4.86-5.338,6.672-11.8,6.673-18.859q.016-71.059,0-142.119c0-20.32.078-40.641-.043-60.961-.08-13.477-11.108-24.775-23.882-24.792-2.1-.185-4.2-.531-6.3-.532q-149-.039-298.008-.02c-1.37,0-2.74.047-4.111.073l-3.859.46c-11.1.933-21.739,12.937-21.625,23.577.056,5.176-3.263,8.714-7.462,7.792-1.932-.425-3.536-2.342-5.288-3.582v-8.986" transform="translate(2697 321.685)" fill="#3646cd"/>
    <path id="Tracé_7421" data-name="Tracé 7421" d="M0,149.25c2.17-1.162,4.256-3.056,6.528-3.315a5.106,5.106,0,0,1,5.927,5.487,9.049,9.049,0,0,1-3.635,6.15c-2.761,1.84-5.7.6-7.781-2.088A9.308,9.308,0,0,0,0,154.492V149.25" transform="translate(2697 321.685)" fill="#3646cd"/>
    <path id="Tracé_7422" data-name="Tracé 7422" d="M344.339,356.437l.828.12-.828-.12" transform="translate(2697 321.685)" fill="#3646cd"/>
    <path id="Tracé_7423" data-name="Tracé 7423" d="M104.132,139.35c10.011,1.137,17.094,8.8,17.168,18.84.093,12.718.182,25.441-.017,38.157-.2,12.927-9.854,19.585-19.918,19.541-17.2-.075-34.412-.177-51.615.012-7.73.084-17.642-8.789-17.625-17.142.027-13.591.163-27.187-.118-40.773-.2-9.813,8.977-18.282,16.609-18.576l55.516-.059M56.894,190.539h-13.1c.443,3.074.339,5.778,1.261,8.069,2.236,5.554,7.257,4.591,11.836,4.391l.572-.589q.013-5.611.027-11.223l-.6-.648M95.054,152.3c-14.7-.052-29.4-.124-44.1-.142-3.145,0-5.679,1.7-5.851,4.7-.39,6.778-.123,13.594-.123,20.624h63.558c0-6.893.163-13.359-.068-19.812-.117-3.256-2.268-5.234-5.58-5.431-2.6-.155-5.223.031-7.836.065M70.669,202.869H82.854V190.613H70.669Zm25.36-.05c11.375,1.912,14.111-3.832,11.867-12.155H96.029Z" transform="translate(2697 321.685)" fill="#3646cd"/>
    <path id="Tracé_7424" data-name="Tracé 7424" d="M130.229,285.553c-5.966-.437-13.1-7.077-14.87-13.84-2.925-11.178,5.19-22.457,17.112-23.789l35.274,0c9.212,1.024,16.826,8.516,17.254,16.615.677,12.811-7.225,19.9-15.009,21.02l-2.277.487-35.217-.007-2.267-.484m28.542-12.227,8.194-.1.864-.355c3.868-.891,4.748-3.7,4.318-7.107-.424-3.358-2.7-4.837-5.911-5.115a20.03,20.03,0,0,0-3.23-.537q-13.278-.072-26.555-.011a18.209,18.209,0,0,0-3.21.581c-3.312.774-5.31,2.739-5.3,6.25.008,3.011,1.207,5.3,4.449,5.978a5.486,5.486,0,0,0,1.705.605c8.226-.03,16.451-.113,24.676-.184" transform="translate(2697 321.685)" fill="#3646cd"/>
    <path id="Tracé_7425" data-name="Tracé 7425" d="M250.846,247.924c7.993.247,16.787,7.356,17.18,17.522.406,10.525-5.361,18.233-14.941,20.107l-2.269.481-35.211.01-1.643-.408c-7.272-.569-11.648-5.344-14.57-11.184-3.243-6.481-1.8-13.024,2.39-18.772a17.851,17.851,0,0,1,13.79-7.758l35.274,0m-.778,25.286.852-.35c3.368-.994,4.8-3.356,4.4-6.721-.408-3.438-2.625-5.148-5.986-5.489a19.811,19.811,0,0,0-3.227-.542q-13.279-.074-26.558-.013a18.4,18.4,0,0,0-3.21.576,6.3,6.3,0,0,0-5.779,5.806,5.911,5.911,0,0,0,4.919,6.437l26.392.408,8.193-.112" transform="translate(2697 321.685)" fill="#3646cd"/>
    <path id="Tracé_7426" data-name="Tracé 7426" d="M84.642,247.921c9.511,1.043,16.936,8.379,17.185,16.98.325,11.237-5.153,18.817-14.931,20.661l-2.286.488-35.216-.015-2.258-.486c-8.827-1.82-16.532-10.9-15.6-19.2,1.03-9.188,7.214-17.4,17.836-18.414l35.273-.012m-8.973,25.407,8.193-.1.875-.359c3.52-.815,4.554-3.229,4.373-6.564-.183-3.392-2.17-4.976-5.232-5.622a14.571,14.571,0,0,0-2.838-.576q-14.033-.073-28.066-.014a14.2,14.2,0,0,0-2.833.588c-3.106.719-5.068,2.543-5.271,5.82A5.742,5.742,0,0,0,49.3,272.9a5.4,5.4,0,0,0,1.7.612c8.224-.029,16.447-.111,24.67-.181" transform="translate(2697 321.685)" fill="#3646cd"/>
    <path id="Tracé_7427" data-name="Tracé 7427" d="M333.919,286.035l-35.216.015-2.286-.486c-6.2-.489-12.848-7-14.957-13.87-3.361-10.945,6.423-23.177,16.478-23.71l34.517-.116c10.467.894,17.65,7.364,18.66,16.809a18.87,18.87,0,0,1-13.11,20.56,11.107,11.107,0,0,1-1.826.31l-2.26.488m.094-13.18c3.329-1.017,4.8-3.348,4.388-6.712-.416-3.417-2.608-5.143-5.961-5.49a24.421,24.421,0,0,0-3.6-.545q-12.9-.078-25.809-.013a23.21,23.21,0,0,0-3.588.567c-3.5.409-5.734,3.007-5.665,5.839.051,2.129,2.708,4.194,4.205,6.287a6.6,6.6,0,0,0,2.036.713c8.319-.02,16.638-.108,24.957-.179l8.2-.126.84-.341" transform="translate(2697 321.685)" fill="#3646cd"/>
    <path id="Tracé_7428" data-name="Tracé 7428" d="M219.907,311.718q-16.845,0-33.689-.006c-4.33-.006-7.176-2.463-7.281-6.2-.115-4.071,2.556-6.529,7.329-6.535q34.249-.041,68.5,0c4.491.006,6.509,1.882,6.535,5.777.033,4.841-1.83,6.914-6.583,6.94-11.6.063-23.208.02-34.812.022" transform="translate(2697 321.685)" fill="#3646cd"/>
    <path id="Tracé_7429" data-name="Tracé 7429" d="M312.677,132.775c-10.343,0-20.686.016-31.029-.008-3.981-.009-6.789-2.584-6.882-6.2-.1-3.811,2.454-6.5,6.582-6.506q31.589-.084,63.178,0c4.213.01,6.721,2.54,6.7,6.378-.021,3.815-2.551,6.3-6.773,6.323-10.591.066-21.184.022-31.776.022" transform="translate(2697 321.685)" fill="#3646cd"/>
    <path id="Tracé_7430" data-name="Tracé 7430" d="M66.619,337.219c-8.975,0-17.951.019-26.926-.007-4.937-.015-7.54-2.193-7.6-6.249-.062-4.22,2.593-6.484,7.738-6.489q27.3-.024,54.6,0c5.109.006,7.359,1.956,7.387,6.265.03,4.451-2.275,6.461-7.526,6.473-9.225.021-18.449.006-27.674.006" transform="translate(2697 321.685)" fill="#3646cd"/>
    <path id="Tracé_7431" data-name="Tracé 7431" d="M102.233,298.961c8.093,0,16.185-.023,24.278.009,4.891.019,7.526,2.255,7.548,6.284.023,3.989-2.71,6.44-7.454,6.45q-24.839.054-49.676,0a6.343,6.343,0,0,1-6.57-6.121c-.136-3.853,2.346-6.53,6.476-6.578,8.465-.1,16.932-.03,25.4-.03Z" transform="translate(2697 321.685)" fill="#3646cd"/>
    <path id="Tracé_7432" data-name="Tracé 7432" d="M201.036,337.214c-5.1,0-10.2.056-15.293-.018-4.143-.06-6.784-2.578-6.808-6.293-.024-3.664,2.652-6.369,6.73-6.4q15.293-.133,30.586,0c4.881.049,6.917,2.2,6.856,6.7-.053,4.012-2.363,5.98-7.151,6.01-4.973.031-9.947.007-14.92,0" transform="translate(2697 321.685)" fill="#3646cd"/>
    <path id="Tracé_7433" data-name="Tracé 7433" d="M245.232,132.775c-2.734,0-5.468.015-8.2,0-3.99-.027-7.164-2.835-7.187-6.332-.024-3.552,3.063-6.351,7.225-6.394,5.716-.059,11.434-.088,17.149,0,5.216.082,7.123,1.985,7.077,6.75-.038,4.041-2.279,5.936-7.116,5.974-2.982.023-5.965,0-8.947,0" transform="translate(2697 321.685)" fill="#3646cd"/>
    <path id="Tracé_7434" data-name="Tracé 7434" d="M45.083,298.961c1.616,0,3.233-.016,4.849,0,4.9.056,6.971,1.878,6.977,6.105.007,4.609-2,6.575-6.879,6.639-3.729.048-7.461.076-11.189-.01-4.218-.1-6.719-2.509-6.752-6.331-.033-3.85,2.445-6.262,6.654-6.39,2.111-.065,4.227-.011,6.34-.016" transform="translate(2697 321.685)" fill="#3646cd"/>
    <path id="Tracé_7435" data-name="Tracé 7435" d="M47.136,285.548l2.258.487-2.258-.487" transform="translate(2697 321.685)" fill="#3646cd"/>
    <path id="Tracé_7436" data-name="Tracé 7436" d="M130.23,285.553l2.267.484-2.267-.484" transform="translate(2697 321.685)" fill="#3646cd"/>
    <path id="Tracé_7437" data-name="Tracé 7437" d="M167.713,286.044l2.277-.488-2.277.488" transform="translate(2697 321.685)" fill="#3646cd"/>
    <path id="Tracé_7438" data-name="Tracé 7438" d="M250.817,286.034l2.269-.482-2.269.482" transform="translate(2697 321.685)" fill="#3646cd"/>
    <path id="Tracé_7439" data-name="Tracé 7439" d="M296.417,285.564l2.286.486-2.286-.486" transform="translate(2697 321.685)" fill="#3646cd"/>
    <path id="Tracé_7440" data-name="Tracé 7440" d="M333.919,286.035l2.26-.489-2.26.489" transform="translate(2697 321.685)" fill="#3646cd"/>
    <path id="Tracé_7441" data-name="Tracé 7441" d="M84.61,286.05l2.286-.488-2.286.488" transform="translate(2697 321.685)" fill="#3646cd"/>
    <path id="Tracé_7442" data-name="Tracé 7442" d="M213.962,285.636l1.643.408q-.82-.205-1.643-.408" transform="translate(2697 321.685)" fill="#3646cd"/>
    <path id="Tracé_7443" data-name="Tracé 7443" d="M57.49,191.188l-.6-.648.6.648" transform="translate(2697 321.685)" fill="#3646cd"/>
    <path id="Tracé_7444" data-name="Tracé 7444" d="M56.892,203c.191-.2.383-.393.573-.59l-.573.59" transform="translate(2697 321.685)" fill="#3646cd"/>
    <path id="Tracé_7445" data-name="Tracé 7445" d="M166.966,273.22l.863-.355-.863.355" transform="translate(2697 321.685)" fill="#3646cd"/>
    <path id="Tracé_7446" data-name="Tracé 7446" d="M250.068,273.21l.851-.35-.851.35" transform="translate(2697 321.685)" fill="#3646cd"/>
    <path id="Tracé_7447" data-name="Tracé 7447" d="M83.862,273.23l.874-.359-.874.359" transform="translate(2697 321.685)" fill="#3646cd"/>
    <path id="Tracé_7448" data-name="Tracé 7448" d="M333.173,273.2l.839-.341-.839.341" transform="translate(2697 321.685)" fill="#3646cd"/>
  </g>
</svg>
