<svg fill="#3646cd" xmlns="http://www.w3.org/2000/svg" width="277.703" height="337.56" viewBox="0 0 277.703 337.56">
  <g id="Groupe_6399" data-name="Groupe 6399" transform="translate(-3739.651 -355.314)">
    <path id="Tracé_7394" data-name="Tracé 7394" d="M1120.845,371.189c-4.6-3.607-9.345-7.043-13.761-10.862-6.574-5.686-12.914-11.642-19.4-17.523-8.119,7.2-16.217,14.112-23.989,21.376-3.874,3.62-8.359,3.945-12.658,2.567-4.734-1.518-7.673-5.357-8.067-10.649l-.282-.84q-.021-84.8-.04-169.608,0-38.365.06-76.733l.279-.83c-.261-6.432,2.327-11.971,5.771-17.088a31.669,31.669,0,0,1,20.314-13.589c4.1-.864,8.419-.694,12.644-.891,2.389-.112,4.787-.02,7.481-.02,0-4.242-.019-8.273,0-12.3.085-15.691,12.76-28.05,27.495-29.9a102.657,102.657,0,0,1,12.674-.622q80.753-.06,161.5.011c13.442.023,23.919,7.568,27.855,20.194a34.868,34.868,0,0,1,1.5,10.2q.122,122.282.125,244.563c.012,8.856-7.5,15.338-15.775,11.52-3.5-1.616-6.266-4.895-9.238-7.56-5.841-5.236-11.593-10.572-17.367-15.854-3.851,1.567-4.813,4.341-4.751,8.415.251,16.7.122,33.4.091,50.1-.011,6.15-2.932,10.018-8.358,12.077-3.913,1.484-6.648-.4-9.176-2.7-6.783-6.164-13.451-12.455-20.094-18.77-2.214-2.106-3.867-3.111-6.661-.336-5.071,5.037-10.557,9.674-16.051,14.262-4.817,4.022-8.833,9.135-15,11.395h-4.614c-1.707-.963-3.642-1.668-5.081-2.935-7.163-6.3-14.184-12.77-21.279-19.152-2.4-2.158-4.872-4.236-7.315-6.354-6.026,5.54-11.788,11.147-17.893,16.353-5.015,4.277-10.436,8.077-15.677,12.088Zm153.047-91.26a11.391,11.391,0,0,1,1.828,0c2.437.379,5.534.006,7.178,1.369,6.279,5.2,12.073,10.993,18.09,16.517a28.256,28.256,0,0,0,3.129,2.2l.356.432.159-.275-.44-.18c.071-1.308.2-2.617.2-3.925q.034-117.3.048-234.6c-.08-.278-.16-.557-.239-.835-.691-5.123-3.888-10.063-11.94-11.3h-.683c-1.206.036-2.412.1-3.617.1q-65.25.007-130.5,0c-11.864,0-23.735-.246-35.588.1-8.421.245-14.765,3.91-16.459,11.943-1.007,4.779-.184,9.944-.184,15.06h3.784q66.074,0,132.148,0c1.2,0,2.411.074,3.616.113l.735.483c9.222-.1,15.824,4.5,21.147,11.594,5.013,6.684,6.669,14.285,6.668,22.427q-.009,73.617,0,147.235c0,7.025.055,14.05.085,21.075q.237.235.475.47m-16.59,66.192.316.4c.042-.087.084-.174.127-.261l-.456-.136c.064-1.311.184-2.621.185-3.932q.023-117,.026-233.99l-.083-1.423a21.663,21.663,0,0,0-.785-3.745c-2.539-6.4-5.57-10.7-13.84-10.7q-83-.045-166,.127a20.973,20.973,0,0,0-10.722,3.324c-4.173,2.705-7.344,6.737-7.261,12.311q-.116.421-.233.844-.03,17.611-.056,35.224.01,100.9.038,201.807-.047.279-.092.558l.408-.392c6.269-5.5,12.746-10.78,18.733-16.569,4.024-3.891,11.469-5.492,16.993-1.4,3.034,2.249,5.87,4.779,8.7,7.292,6.412,5.7,12.736,11.5,19.193,17.146a2.752,2.752,0,0,0,2.657-.018c8.737-7.68,17.443-15.4,26.02-23.256,4.588-4.2,12.429-4.38,17.046-.114q7.922,7.318,15.9,14.576c3.682,3.332,7.442,6.576,11.124,9.821a27.8,27.8,0,0,0,2.677-1.835c8.3-7.358,16.637-14.666,24.823-22.144,5.768-5.269,11.762-5.2,17.447.315,5.631,5.467,11.407,10.784,17.119,16.167" transform="translate(2697 321.685)" fill="#3646cd"/>
    <path id="Tracé_7397" data-name="Tracé 7397" d="M1209.25,251.156c5.194.95,7.011,3.495,6.528,9.144-.289,3.39-3.663,6.188-7.871,6.2q-31.273.075-62.546.024c-11.192,0-22.386-.128-33.576.035a7.816,7.816,0,0,1-8.118-8.687,7.63,7.63,0,0,1,6.551-6.724l99.032.01" transform="translate(2697 321.685)" fill="#3646cd"/>
    <path id="Tracé_7398" data-name="Tracé 7398" d="M1209.258,200.387c5.191.951,6.995,3.477,6.52,9.131-.28,3.337-3.568,6.147-7.521,6.151q-48.393.043-96.785-.008c-3.664,0-6.934-2.369-7.672-5.247a9.085,9.085,0,0,1,3.89-9.6,7.746,7.746,0,0,1,2.515-.44l99.053.014" transform="translate(2697 321.685)" fill="#3646cd"/>
    <path id="Tracé_7399" data-name="Tracé 7399" d="M1163.086,149.647c5.969,1.5,6.184,5.364,5.891,9.457-.216,3.01-4.08,5.8-7.917,5.807q-25,.041-50-.058a6.974,6.974,0,0,1-7.123-5.363,7.907,7.907,0,0,1,3.3-8.957,12.239,12.239,0,0,1,2.957-.918l.8-.394,50.707,0,1.391.431" transform="translate(2697 321.685)" fill="#3646cd"/>
    <path id="Tracé_7400" data-name="Tracé 7400" d="M1209.258,200.387l-99.053-.014a13.493,13.493,0,0,1,2.725-.567q46.807-.045,93.614,0a13.1,13.1,0,0,1,2.714.581" transform="translate(2697 321.685)" fill="#3646cd"/>
    <path id="Tracé_7401" data-name="Tracé 7401" d="M1209.25,251.156l-99.032-.01a19.984,19.984,0,0,1,3.386-.577q46.133-.048,92.264,0a19.652,19.652,0,0,1,3.382.586" transform="translate(2697 321.685)" fill="#3646cd"/>
    <path id="Tracé_7402" data-name="Tracé 7402" d="M1110.988,149.221l-.8.394.8-.394" transform="translate(2697 321.685)" fill="#3646cd"/>
  </g>
</svg>
