<svg xmlns="http://www.w3.org/2000/svg" width="371.527" height="362.749" viewBox="0 0 371.527 362.749">
  <g id="Groupe_6400" data-name="Groupe 6400" transform="translate(-4151.434 -344.309)">
    <path id="Tracé_7403" data-name="Tracé 7403" d="M1600.467,369.676H1595.5c-37.056,0-74.115-.179-111.17.1-12.563.1-21.737-4.751-27.13-15.967a27.321,27.321,0,0,1-2.5-11.408q-.229-77.686-.08-155.373c.007-11.494,9.259-23.924,22.468-25.543,8-.98,16.17-.635,24.265-.721,9.45-.1,18.9-.024,28.817-.024v-4.744q0-56.721,0-113.442c0-9,4.726-13.667,13.863-13.668q103.686-.009,207.367,0c9.8,0,14.393,4.59,14.417,14.484.035,14.1.01,28.2.01,42.306q0,88.545.008,177.089c0,6.172-.735,5.486,5.676,5.5,15.6.025,31.193-.006,46.789.016,5.771.009,7.641,1.868,7.642,7.58q.018,50.917,0,101.835c0,5.72-1.916,7.674-7.588,7.675q-105.183.017-210.363,0c-5.765,0-7.5-1.8-7.533-7.651-.013-2.48,0-4.96,0-8.038m30.792-80.25c1.59-2.848,4.248-3.028,7.111-3.027q74.868.044,149.737.023c5.495,0,6.8,1.145,7.881,6.763a6.959,6.959,0,0,0,5.9,5.945c4.719.949,6.7,2.874,6.736,7.419q.153,20.406-.01,40.812c-.037,4.36-2.39,6.891-6.56,7.147-3.751.23-5.248,2.551-5.989,5.623-1.412,5.852-2.933,7.173-8.91,7.173q-73.932,0-147.865,0c-.749,0-1.5.038-2.246-.013-4.036-.277-5.828-2.226-6.62-6.194-.4-2-1.7-3.826-2.317-5.157-4.5,3.812-8.225,7.656-12.617,10.458-3.02,1.926-3.43,3.733-2.5,6.733,1.021.07,1.877.178,2.732.178q97.33.012,194.659.08c3.218,0,3.616-1.257,3.609-3.954q-.108-42.5.036-84.995c.017-3.4-1.031-4.128-4.24-4.112-25.455.126-50.911.07-76.366.07q-47.73,0-95.458-.021c-2.636,0-5.272-.295-8.167-.469V293.15l.464.041q.5-1.883,1-3.765m-1.253-78.074h4.769q39.673,0,79.345,0a31.429,31.429,0,0,1,3.737.1,4.934,4.934,0,0,1,4.741,4.5c.4,2.964-.3,5.619-3.461,6.642a18.216,18.216,0,0,1-5.515.715q-39.486.064-78.971.029h-4.469v24.082h4.374q39.484,0,78.97,0c1.247,0,2.763-.415,3.683.141,1.734,1.047,3.939,2.407,4.47,4.1.846,2.7.588,5.916-3,7.038a17.5,17.5,0,0,1-5.139.674q-39.484.062-78.969.028h-4.418v8.659c1.113.082,1.965.2,2.815.2q58.564-.153,117.127-.282c2.523,0,3.485-.645,3.48-3.338-.018-12.1.258-24.2.264-36.293q.05-91.528.015-183.057v-4.2H1542.438v119.65h4.345c18.215,0,36.429-.073,54.643.032,9.314.053,17.441,3.19,23.012,10.952,1.875,2.614,3.753,3.287,6.738,3.276q41.542-.154,83.087-.03a16.706,16.706,0,0,1,5.5.757,5.224,5.224,0,0,1,3.551,5.919,5.545,5.545,0,0,1-4.691,5.134,18.15,18.15,0,0,1-3.73.137q-40.233.009-80.466.005h-4.416Zm-12.11,54.18q0-37.806,0-75.612c-.006-11.239-6.017-17.193-17.353-17.2q-58.193-.014-116.387,0c-11.525,0-17.574,6.046-17.575,17.53-.005,50.034.121,100.068-.1,150.1-.049,11.243,7.638,17.556,17.263,17.475q58.563-.495,117.133.013c9.907.093,17.263-6.679,17.126-17.075-.331-25.075-.108-50.157-.108-75.237m95.276,89.774c22.448,0,44.9-.074,67.346.09,2.923.022,4.274-1.132,5.885-3.267a34.514,34.514,0,0,1,7.312-7.224c1.736-1.244,2.655-2.336,2.638-4.392-.076-9.594-.056-19.191-.256-28.783-.018-.9-1.263-1.843-2.047-2.661-2.713-2.829-5.413-5.676-8.249-8.379-1.022-.975-2.415-2.225-3.641-2.228q-69.031-.17-138.064-.012c-1.135,0-2.443,1.072-3.369,1.958-3,2.873-5.913,5.844-8.747,8.882-.884.948-1.99,2.219-2.01,3.358-.162,9.354-.175,18.712.009,28.065.024,1.255,1.215,2.66,2.188,3.69,2.608,2.759,5.777,5.074,7.966,8.111,1.416,1.964,2.516,2.855,4.942,2.845,22.7-.09,45.4-.053,68.1-.053" transform="translate(2697 321.685)" fill="#2fa7ff"/>
    <path id="Tracé_7404" data-name="Tracé 7404" d="M1468.1,67.76c-2.38,0-4.231.069-6.075-.015-3.355-.152-5.51-2.1-6.888-4.979-1.323-2.762-.7-5.326,1.206-7.579,8.282-9.8,16.528-19.64,24.926-29.344,3.7-4.27,8.872-4.3,12.582-.029,8.329,9.6,16.451,19.378,24.692,29.053a7.882,7.882,0,0,1-6.365,12.915c-1.588-.051-3.179-.009-5.2-.009V72.14q0,33.667,0,67.336c0,8.1-3.445,11.525-11.606,11.555-5.61.02-11.221.059-16.83-.016-6.59-.087-10.38-3.865-10.412-10.522-.069-13.966-.022-27.932-.023-41.9V67.76m35.255-12.292-15.729-18.479-15.8,18.514c6.843.694,8.2,2.226,8.206,8.637q.006,35.349,0,70.7v4.995l14.958-.746v-4.873q0-34.975,0-69.951c0-6.458,1.184-7.823,8.361-8.8" transform="translate(2697 321.685)" fill="#2fa7ff"/>
    <path id="Tracé_7405" data-name="Tracé 7405" d="M1648.086,66.821q33.667,0,67.335,0c6.208,0,7.952,1.767,7.959,8q.015,16.276-.007,32.553c-.014,5.284-2.172,7.47-7.526,7.473q-67.9.033-135.794,0c-5.408,0-7.7-2.286-7.737-7.8q-.1-16.089,0-32.178c.031-6.129,2.008-8.057,8.063-8.06q33.855-.016,67.71,0m-63.95,35.754h127.235c0-6.714-.226-13.08.087-19.419.179-3.628-1.175-4.278-4.458-4.269q-58.937.15-117.873.065c-.748,0-1.686-.28-2.2.066-1.049.7-2.634,1.714-2.664,2.643-.225,6.846-.122,13.7-.122,20.914" transform="translate(2697 321.685)" fill="#2fa7ff"/>
    <path id="Tracé_7406" data-name="Tracé 7406" d="M1648.48,150.881q-34.037,0-68.072,0c-4.831,0-7.439-2.059-7.511-5.837-.075-3.938,2.594-6.093,7.609-6.139.748-.007,1.5,0,2.244,0h57.974q37.028,0,74.056.028a28.821,28.821,0,0,1,4.726.648c3.541.606,4.008,3.135,3.907,6.137-.1,3.08-2.086,4.365-4.632,5.047a13.235,13.235,0,0,1-3.351.119q-33.476.006-66.95,0" transform="translate(2697 321.685)" fill="#2fa7ff"/>
    <path id="Tracé_7407" data-name="Tracé 7407" d="M1541.643,231.908q-25.8,0-51.61-.011c-7.655-.016-11.9-4.149-12.111-11.91-.155-5.732-.143-11.474,0-17.206.176-7.157,4.688-11.482,11.916-11.488q52.545-.039,105.091,0c7.288.007,11.59,4.339,11.663,11.614.058,5.86.077,11.722-.007,17.581-.1,7.062-4.4,11.376-11.459,11.4-17.827.053-35.654.018-53.481.02m52.913-28.148a7.99,7.99,0,0,0-1.031-.314q-50.679-.075-101.358-.041c-.8,0-2.194,1.462-2.274,2.337-.282,3.092.127,6.249-.176,9.338-.364,3.7.737,4.85,4.661,4.829,31.92-.177,63.841-.1,95.761-.1a7.054,7.054,0,0,0,2.589-.094c.731-.309,1.728-1.154,1.748-1.791.148-4.7.08-9.41.08-14.163" transform="translate(2697 321.685)" fill="#2fa7ff"/>
    <path id="Tracé_7408" data-name="Tracé 7408" d="M1586.538,271.35c-2.87,0-5.741.049-8.609-.01-5.9-.121-11.75-5.145-11.124-11.548.3-3.079-.352-6.4.583-9.236,1.65-5,5.831-7.306,11.039-7.408,5.738-.112,11.485-.178,17.218.013,6.6.219,10.577,4.752,11.007,11.315.89,13.57-4.3,17.65-16.745,16.891-1.119-.068-2.246-.009-3.369-.017m7.533-16.357c-4.283,0-8.485-.126-12.668.1-.885.048-1.7,1.389-2.546,2.134.852.741,1.657,2.046,2.563,2.121,3.2.262,6.453-.037,9.67.145,3.078.174,4.173-.93,2.981-4.5" transform="translate(2697 321.685)" fill="#2fa7ff"/>
    <path id="Tracé_7409" data-name="Tracé 7409" d="M1586.685,339.529c-2.738,0-5.477-.06-8.212.012-6.268.165-12.378-5.038-11.656-11.682.358-3.29-.1-6.837.979-9.843,1.744-4.837,6.1-6.63,11.067-6.7,5.225-.078,10.471-.3,15.674.048,7.883.526,11.885,3.819,12.062,12.392q.047,2.24,0,4.481c-.136,6.55-4.367,10.958-10.954,11.266-2.98.139-5.972.023-8.958.029m.211-16.38a28.877,28.877,0,0,0-5.564.1c-.935.186-1.657,1.445-2.474,2.22.757.709,1.481,1.984,2.277,2.031a95.288,95.288,0,0,0,11.159,0c.8-.047,1.517-1.324,2.272-2.034-.819-.774-1.536-2.011-2.48-2.22a24.507,24.507,0,0,0-5.19-.1" transform="translate(2697 321.685)" fill="#2fa7ff"/>
    <path id="Tracé_7410" data-name="Tracé 7410" d="M1498.147,339.531c-2.744,0-5.488.03-8.232-.006-7.3-.1-12.155-4.964-12.131-12.2.007-2.359-.221-4.808.317-7.057a11.026,11.026,0,0,1,10.682-8.878c6.1-.284,12.23-.31,18.326-.014,6.6.32,10.357,4.66,10.345,11.248,0,2-.008,3.992,0,5.988a10.4,10.4,0,0,1-10.331,10.877c-2.985.153-5.985.027-8.978.037M1490.3,327.6c4.328,0,8.531.127,12.714-.1.866-.048,1.658-1.429,2.483-2.2-.882-.713-1.722-1.966-2.656-2.04-3.2-.257-6.444.042-9.655-.142-3.168-.18-4.043,1.076-2.886,4.481" transform="translate(2697 321.685)" fill="#2fa7ff"/>
    <path id="Tracé_7411" data-name="Tracé 7411" d="M1542.645,243.118c2.738,0,5.478-.063,8.215.012,6.817.188,10.782,4.277,10.767,11.021a40.89,40.89,0,0,0,.051,6.341c.974,6.209-5.013,10.714-10.269,10.824-5.972.125-11.953.18-17.921-.013-5.834-.187-9.872-3.369-10.857-9.262a25.627,25.627,0,0,1,.374-11.6c1.482-4.641,5.553-7.181,10.678-7.3,2.986-.072,5.974-.013,8.962-.016m7.573,11.9c-4.984,0-9.571-.093-14.146.1a2.111,2.111,0,0,0-.048,4.2c4.679.19,9.369.1,14.194.1Z" transform="translate(2697 321.685)" fill="#2fa7ff"/>
    <path id="Tracé_7412" data-name="Tracé 7412" d="M1542.48,305.242c-2.619,0-5.238.01-7.857,0-6.789-.033-10.265-2.236-12.062-8.856-2.116-7.8-.134-15.894,7.427-18.337a20.22,20.22,0,0,1,5.84-.622c5.237-.075,10.477-.1,15.713.006,6.243.121,10.158,4.235,10.093,10.386q-.04,3.743.006,7.485a9.556,9.556,0,0,1-9.06,9.859c-3.357.187-6.732.035-10.1.035Zm.223-15.82a35.206,35.206,0,0,0-5.593.089c-.89.145-1.627,1.227-2.433,1.885.745.6,1.468,1.667,2.24,1.705,3.729.179,7.477.179,11.206,0,.769-.037,1.488-1.112,2.229-1.708-.805-.657-1.537-1.721-2.431-1.882a29.833,29.833,0,0,0-5.218-.088" transform="translate(2697 321.685)" fill="#2fa7ff"/>
    <path id="Tracé_7413" data-name="Tracé 7413" d="M1497.722,271.577c-3.718-.236-7.495-.136-11.139-.788a10.89,10.89,0,0,1-8.79-10.622,34.946,34.946,0,0,1,.218-7.825c1.143-5.571,5.653-9.052,11.6-9.194,5.607-.133,11.22-.062,16.83-.019,6.81.052,12.1,5.627,11.055,11.355a15.7,15.7,0,0,0-.006,5.222c1.06,6.521-4.683,11.575-11.158,11.642-2.867.029-5.735.005-8.6.005,0,.074-.009.149-.013.224m-.1-12.125a35.943,35.943,0,0,0,5.922-.1c.967-.164,1.764-1.335,2.638-2.05-.818-.771-1.6-2.152-2.46-2.207a90.485,90.485,0,0,0-11.492,0c-.858.055-1.629,1.447-2.441,2.224.879.709,1.673,1.835,2.656,2.035a26.332,26.332,0,0,0,5.177.093" transform="translate(2697 321.685)" fill="#2fa7ff"/>
    <path id="Tracé_7414" data-name="Tracé 7414" d="M1586.5,305.233c-2.985,0-5.971.039-8.956-.008-6.061-.1-10.374-4.711-10.751-10.792-.764-12.317,2.565-18.055,16.679-17.075,3.838.267,7.711.006,11.566.049,6.221.068,10.466,3.139,11.3,9.077a32.687,32.687,0,0,1-.551,11.011c-1.04,4.973-4.884,7.607-9.957,7.739-.248.007-.5.005-.746.005q-4.292,0-8.584-.006m-.007-12.054a44.609,44.609,0,0,0,5.968-.089c.766-.1,1.4-1.2,2.088-1.85-.607-.6-1.2-1.7-1.825-1.722-3.981-.16-7.973-.16-11.954-.006-.649.025-1.258,1.081-1.886,1.661.668.668,1.264,1.8,2.016,1.911a37.345,37.345,0,0,0,5.593.095" transform="translate(2697 321.685)" fill="#2fa7ff"/>
    <path id="Tracé_7415" data-name="Tracé 7415" d="M1541.789,339.529c-2.364,0-4.728.012-7.092,0-6.759-.04-11.2-3.286-12.421-9.849-.806-4.333-.924-8.807,1.654-12.889,2.029-3.213,4.976-5.2,8.542-5.312a184.914,184.914,0,0,1,20.847.382c5.311.432,8.31,4.432,8.309,9.662,0,2.365-.007,4.73,0,7.094.021,6.529-3.9,10.653-10.509,10.893-3.107.112-6.221.019-9.331.021m9.378-11.926c-1.055-2.043-1.6-4.209-2.293-4.258a102.1,102.1,0,0,0-13.02-.015c-.665.037-1.512,1.644-1.716,2.639-.078.378,1.4,1.531,2.2,1.559,4.451.156,8.91.075,14.828.075" transform="translate(2697 321.685)" fill="#2fa7ff"/>
    <path id="Tracé_7416" data-name="Tracé 7416" d="M1497.68,305.234c-2.992,0-5.986.067-8.976-.015a10.863,10.863,0,0,1-10.857-10.986c.08-3.642.118-7.654,1.646-10.779,1.235-2.525,4.563-5.434,7.151-5.625,7.746-.571,15.595-.067,23.383.374a6.926,6.926,0,0,1,6.728,6.428,51.839,51.839,0,0,1-.088,13.531c-.723,4.462-4.35,6.855-8.889,7.029-3.361.129-6.732.025-10.1.025v.018m.005-12.07c2.232,0,4.477.137,6.686-.085a2.461,2.461,0,0,0,1.657-1.765,2.434,2.434,0,0,0-1.617-1.788c-4.209-.162-8.431-.181-12.639,0-.677.028-1.3,1.266-1.953,1.945.638.568,1.23,1.546,1.924,1.626a50.938,50.938,0,0,0,5.942.07" transform="translate(2697 321.685)" fill="#2fa7ff"/>
    <path id="Tracé_7417" data-name="Tracé 7417" d="M1721.941,323.2c5.171,2.944,7.734,6.951,7.41,12.467-.313,5.319-3.109,8.985-7.936,11.261-1.087.513-1.765,1.832-2.778,2.582-1.712,1.268-3.527,3.273-5.325,3.3s-3.725-1.865-5.435-3.131a27.789,27.789,0,0,1-3.53-3.437c-2.265-2.414-4.938-4.6-6.616-7.376-2.317-3.839-.411-7.424,3.982-9.414-1.266-3.282-3.126-6.438-3.635-9.8-.832-5.5,2.294-9.386,6.7-12.392,1.138-.775,1.858-2.141,2.946-3.015,1.639-1.316,3.445-3.405,5.158-3.384,1.924.024,3.912,1.908,5.7,3.213a18.733,18.733,0,0,1,3.186,3.287c2.089,2.518,4.659,4.839,6.011,7.72,1.9,4.055.184,6.485-4.193,7.348a9.228,9.228,0,0,0-1.652.766m-14.258,8.5c2.621,5.486,6.036,6.34,10.061,2.539l-10.061-2.539m1.382-12.31,8.885,2.333c-1.761-5.039-4.225-5.923-8.885-2.333" transform="translate(2697 321.685)" fill="#2fa7ff"/>
    <path id="Tracé_7418" data-name="Tracé 7418" d="M1661.245,332.81c-2.858,0-5.719.072-8.574-.018-3.608-.114-6.39-2.71-6.439-5.852-.054-3.509,2.538-6.006,6.531-6.058q8.946-.114,17.894,0c3.965.05,6.317,2.283,6.349,5.778.033,3.679-2.376,6.033-6.441,6.139-3.1.081-6.213.016-9.32.013" transform="translate(2697 321.685)" fill="#2fa7ff"/>
    <path id="Tracé_7419" data-name="Tracé 7419" d="M1764.176,332.814c-2.737,0-5.473.013-8.207,0-3.678-.022-7.188-2.981-7.147-6s3.311-5.893,6.957-5.933c5.968-.066,11.939-.079,17.906.007,4.141.059,5.765,1.827,5.823,5.988.049,3.551-1.932,5.74-5.634,5.9-3.228.143-6.466.03-9.7.038" transform="translate(2697 321.685)" fill="#2fa7ff"/>
  </g>
</svg>
