<svg xmlns="http://www.w3.org/2000/svg" width="383.13" height="384" viewBox="0 0 383.13 384">
  <g id="Groupe_6398" data-name="Groupe 6398" transform="translate(-3228.19 -321.685)">
    <path id="Tracé_7388" data-name="Tracé 7388" d="M914.32,170.26v20.99c-.8,13.45-8.65,19.4-18.83,19.9-5.85.29-11.73-.03-17.57.26-2.51.13-4.97,1.1-7.45,1.69-.85,1.96-1.67,3.93-2.56,5.88-2.16,4.77-4.36,9.53-6.55,14.3-.73,3.29.82,5.67,3.01,7.88,4.52,4.57,8.96,9.21,13.44,13.83,5.42,4.61,6.97,15.75,2.35,22.55-2.5,2.89-4.89,5.9-7.54,8.65-3.88,4.02-7.96,7.86-11.95,11.78-3.47,3.55-6.83,7.24-10.45,10.64-8.03,7.54-18.9,7.61-26.94.11-3.9-3.64-7.44-7.67-11.15-11.53-3.2-3.11-6.46-6.16-9.6-9.34-2.89-2.94-3-6.3-.48-9.06,2.44-2.69,6.27-2.96,9.27-.08,5.9,5.67,11.56,11.61,17.31,17.43,7.82,7.43,8.39,7.2,16.24.12q9.72-9.75,19.46-19.49c.99-1.1,1.9-2.28,2.98-3.28,3.08-2.87,4.52-5.94.03-11.25-1.67-1.98-3.56-3.77-5.35-5.64-5.03-5.02-11.24-9.18-12.78-16.8a53.448,53.448,0,0,1-.52-7.29q4.125-10.125,8.24-20.25c2.74-8.54,9.02-13.44,17.77-13.66,5.83-.14,11.65-.04,17.48-.06,6.76-.02,8.19-1.22,9.65-8.04q-.015-10.125-.01-20.25l-1.11-20.16h-.01c-2.57-.99-5.1-2.66-7.74-2.85-6.07-.43-12.2-.02-18.3-.19-8.15-.22-13.88-4.28-17.08-11.74-1.71-3.98-3.09-8.1-4.61-12.15-8.03-11.95-4.03-22.53,2.92-27.96,3.81-3.91,7.64-7.8,11.42-11.73,3.93-4.09,3.87-7.12-.11-11.18-2.25-2.3-4.46-4.64-6.69-6.96q-8.88-8.85-17.74-17.69c-4.5-4.48-7.54-4.48-12.08.02-4.08,4.04-8.09,8.15-12.19,12.18-6.54,6.42-13.82,7.76-22.27,4.21-5.38-2.25-10.8-4.41-16.17-6.7-6.2-2.64-10.65-6.82-11.73-13.85a42.686,42.686,0,0,1-.66-5.12c-.09-5.88.07-11.76-.07-17.63-.13-5.58-2.6-7.95-8.15-7.97-11.6-.05-23.21-.03-34.81-.01-5.66.01-8.24,2.46-8.36,8.16-.13,5.88.01,11.75-.04,17.63-.08,9.59-4.43,15.74-13.28,19.17-4.99,1.93-9.93,4.01-14.84,6.13-8.87,3.83-16,2.58-22.87-4.18-3.82-3.76-7.59-7.59-11.39-11.38-5.51-5.5-7.84-5.5-13.39-.04-.79.77-1.71,1.4-2.58,2.1-1.4,1.35-2.84,2.67-4.2,4.07-6.02,6.23-12.04,12.45-18,18.73-2.11,2.22-3.02,4.78-1.37,7.74q10.725,10.9,21.44,21.81a6.588,6.588,0,0,1,1.27,8.41,5.38,5.38,0,0,1-6.35,2.76,9.425,9.425,0,0,1-4.09-2.38c-6.66-6.53-13.4-13.01-19.7-19.88-2.31-2.51-3.51-6.05-5.21-9.11-2.35-6.52-.42-12.28,3.89-17.07,5.05-5.6,10.64-10.72,15.99-16.05,4.38-4.43,8.6-9.05,13.2-13.24a18.5,18.5,0,0,1,24.89.07c4.88,4.46,9.52,9.19,14.1,13.97,2.88,3.01,5.78,3.67,9.62,1.83,4.83-2.31,9.8-4.32,14.81-6.23,3.75-1.43,5.44-3.78,5.38-7.91-.1-6.86.02-13.74.46-20.58.52-7.87,4.89-13.09,12.15-15.99A14.881,14.881,0,0,0,718.32,0h46.41c2.63,1.3,5.47,2.3,7.85,3.95,5.85,4.03,7.55,10.24,7.77,16.91.24,6.97.16,13.96.22,20.94,2.64,1.77,5.13,3.87,7.96,5.24,3.89,1.89,8.21,2.92,12.04,4.91,3.96,2.07,6.83.95,9.62-1.85,4.14-4.15,8.34-8.25,12.43-12.45,7.58-7.79,19.52-8.47,27.74-.65,8.31,7.9,16.27,16.17,24.36,24.31a6,6,0,0,1,.84,1.61c9.38,7.89,10.16,19.63,1.83,28.52-1.34,1.44-2.93,2.63-4.41,3.94-3.03,3.21-5.99,6.48-9.09,9.61-2.57,2.6-3.36,5.25-1.46,8.67a78.8,78.8,0,0,1,3.33,7.84c1.06,2.61,2.14,5.22,3.17,7.84,1.32,3.4,3.67,4.98,7.41,5.02,7.53.07,15.14-.16,22.58.8,8.35,1.08,14.33,7.78,14.67,14.84q.36,10.125.73,20.26" transform="translate(2697 321.685)" fill="#3646cd"/>
    <path id="Tracé_7389" data-name="Tracé 7389" d="M824.51,168.75q-.39,8.64-.79,17.26c-1.45,5.52-2.88,11.05-4.39,16.55a19.2,19.2,0,0,1-1.34,2.97c-3.68,9.86-9.67,18.2-16.97,25.63-3.77,3.84-8.51,2.84-10.98-1.92-1.51-2.9.3-4.77,1.7-6.7,4.37-6.02,8.88-11.95,13.34-17.91q3.09-9.69,6.19-19.38.375-8.25.74-16.5-1.665-9.96-3.34-19.94c-1.55-3.33-2.68-6.96-4.75-9.93-4.16-5.96-8.84-11.55-13.29-17.31-.88-1.14-1.65-2.36-2.48-3.54-3.14-1.88-6.27-3.79-9.43-5.65a71.877,71.877,0,0,0-32.65-9.76c-18.08-1.11-33.86,4.13-47.94,15.17-2.06,1.61-3.82,3.59-5.86,5.22a6.465,6.465,0,0,1-9.36-.67c-2.15-2.32-1.94-5.97.8-8.65a80.515,80.515,0,0,1,46.56-23.02,83.643,83.643,0,0,1,35.25,2.5c14.67,4.32,27.57,11.84,37.56,23.78,8.63,8.7,14.27,19.13,17.77,30.81q1.83,10.5,3.66,20.99" transform="translate(2697 321.685)" fill="#3646cd"/>
    <path id="Tracé_7390" data-name="Tracé 7390" d="M786.43,241.94c-.83-6.81-3.43-12.65-10.3-15.53-3.95-2.67-8.42-2.18-12.82-2.17-8.26.02-14.32-9.97-10.46-17.21,5.33-4.93,10.95-9.69,10.44-18.02.78-7.42-2.52-12.93-8.13-17.34-5.35-5.4-10.45-11.1-16.14-16.11-5.98-5.26-13.26-5.96-20.32-2.62-3.6,1.69-6.56,4.85-9.58,7.59-2.85,2.59-5.64,3.99-9.3,1.67a17.4,17.4,0,0,0-3.43-1.45c-3.96-1.46-6.08-4.17-5.88-8.5.04-1.24.09-2.48.12-3.73.29-12.71-8.23-20.35-19.99-20.39-8.46-.02-16.94-.31-25.37.21a21.9,21.9,0,0,0-10.31,3.56c-7.2,4.78-8.77,12.19-7.84,20.35.11,4.04-1.54,6.75-5.42,8.42-8.79,3.8-8.8,3.9-15.7-2.93-.71-.7-1.46-1.36-2.16-2.07-5.33-5.35-18.39-6.52-24.54-.64-6.29,6.02-12.27,12.34-18.39,18.53-6.86,5.71-8.79,13.8-5.2,21.75,1.86,2.73,3.3,5.94,5.69,8.09,4.26,3.86,6.39,7.83,3.47,13.35-2.06,6.16-6.47,8.18-12.67,7.57a20.666,20.666,0,0,0-6.96.53c-7.55,1.9-11.56,7.45-14.05,14.4V273c2.82,7.41,7.49,13.12,15.51,14.78,4.67.96,9.56.83,14.34,1.19,2.79,4.43,6.47,8.85,4.37,14.43-1.02,2.71-3.78,4.76-5.75,7.11-6.38,6.38-8.48,15.96-2.26,23.98a12.124,12.124,0,0,0,1.4,2.18c6.56,6.6,12.95,13.41,19.84,19.66,4.59,4.17,10.11,6.37,16.68,4.43,5.36-1.58,9.19-5.12,13.08-8.8,1.52-1.43,3.7-3.01,5.6-3.05,7.74-.16,12.69,4.85,13.12,12.6.05,2.48-.31,5.05.23,7.42,1.8,7.9,7.44,12.29,14.62,15.07h32.94c2.7-1.32,5.63-2.32,8.07-4.01,7.02-4.86,8.24-12.1,7.52-19.98-.22-4.12,1.25-7.27,5.34-8.64,7.32-2.44,8.05-5.47,15.66,2.93a8.529,8.529,0,0,0,.8.79c8.09,6.62,16.21,10.01,26.75,1.06a194.872,194.872,0,0,0,19.59-19.39c2.39-2.7,3.03-6.96,4.48-10.5a52.24,52.24,0,0,0-.25-7.42c-.96-5.57-5.34-8.86-8.76-12.85-1.51-1.76-1.92-4.46-2.83-6.73.99-2.11,2.12-4.17,2.92-6.34a6.924,6.924,0,0,1,7.02-4.91c1.49-.03,2.99-.08,4.48,0,7.22.39,12.77-2.72,17.22-8.17.94-1.85,2.57-3.65,2.71-5.56.53-7.41.59-14.85.83-22.28.01-3.36.38-6.76-.03-10.06m-12.61,25.67c-.09,5.23-2.53,7.63-7.79,7.6-5.07-.03-10.15-.25-14.77,2.4-8.15,4.91-10.51,13.2-12.61,21.64-.8,7.03,2.43,12.36,7.35,16.8,3.11,2.8,5.28,5.8,4.61,10.21-6.28,6.56-12.4,13.3-18.92,19.61-4.17,4.05-6.38,3.73-10.63-.55-4.13-4.18-8.42-7.84-14.47-9.14-13.68-2.93-29.32,9.99-28.56,23.83-.53,10.51-1.29,11.22-12.08,11.22H648.09c-6.47,0-8.23-1.74-8.35-8.24-.01-.5-.08-.99-.12-1.49.93-15.69-7.44-20.75-20.8-24.77-7.2-2.17-13.52.06-18.65,5.37-9.8,10.14-10.9,6.92-17.93-.09-3.26-3.25-6.6-6.42-9.91-9.63-1.25-1.38-2.55-2.72-3.73-4.16-2.97-3.61-2.81-5.92.44-9.35,2.13-2.26,4.18-4.59,6.26-6.88,5.03-6.51,4.56-13.43,1.48-20.53-.62-1.44-1.3-2.86-1.95-4.29-3.19-8.19-9.7-11.41-17.96-11.92-1.85-.11-3.72-.02-5.59-.02-4.71,0-7.31-2.66-7.35-7.49-.01-1-.08-1.99-.13-2.98q.105-12,.19-23.99c2.26-1.25,4.47-3.51,6.77-3.6,17.42-.71,21.18-3.27,27.04-19.62h.01c3.7-10.78-1.35-18.27-9.21-24.72-3.02-5.1-2.91-6.15,1.22-10.52,1.86-1.96,3.74-3.91,5.6-5.86,3.39-3.31,6.75-6.64,10.16-9.92,3.5-3.36,7.71-3.36,11.19.09,3.98,3.93,7.75,8.24,13.65,9.14a17.294,17.294,0,0,0,7.24-.26,63.784,63.784,0,0,0,12.48-4.77c7.25-3.87,9.55-10.65,9.48-18.48.58-10.88,1.07-11.35,11.98-11.35,5.96,0,11.92-.01,17.89.01,6.62.01,8.4,1.8,8.41,8.36.01,1,.08,1.99.12,2.98-1.23,8.46,5.46,17.31,11.95,19.66,2.22.81,4.35,1.85,6.53,2.76,7.79,3.28,14.53,1.19,20.57-4.15,1.59-1.4,2.96-3.05,4.55-4.44a7.4,7.4,0,0,1,10.39.26c2.17,2.04,4.32,4.11,6.47,6.17,2.93,3.03,5.76,6.16,8.81,9.05,2.19,2.08,3.7,4.29,3.34,7.44-1.69,2.48-3.47,4.9-5.05,7.45-2.15,3.47-4.14,7.03-6.19,10.55-.27,2.27-1.26,4.76-.64,6.76,1.43,4.64,3.65,9.05,5.54,13.55,3.6,6.2,9.09,9.25,16.12,9.67,1.98.12,3.98.01,5.98.02,5.09.02,7.21,2.05,7.42,7.17.11,2.61.14,5.22.21,7.84-.06,5.2-.11,10.4-.2,15.6" transform="translate(2697 321.685)" fill="#3646cd"/>
    <path id="Tracé_7391" data-name="Tracé 7391" d="M714.62,243.74a47.377,47.377,0,0,0-12.64-25.53c-4.66-6.06-10.79-10.29-17.52-13.61a58.036,58.036,0,0,0-36.8-4.95c-11.2,2.04-21.12,7-28.99,15.56a46.842,46.842,0,0,0-12.87,19.47,39.736,39.736,0,0,0-4.15,18.83c-.45,7.51,0,14.89,3.47,21.78,2.6,8.88,7.67,16.17,14.44,22.34,22.87,22.1,55.4,20.7,79.31.14a51.988,51.988,0,0,0,4.39-3.84c5.5-5.94,8.18-13.33,10.42-20.92.75-3.46,2.09-6.92,2.1-10.38.03-6.3-.73-12.59-1.16-18.89m-11.4,10.5c-.51,6.29-1.82,12.51-2.79,18.77a51.045,51.045,0,0,1-19.77,22.37c-6.98,2.69-13.79,5.48-21.59,5.53-8.08.06-15.24-2.25-22.22-5.81a44.4,44.4,0,0,1-22.73-41.59,42.672,42.672,0,0,1,4.73-17.83,2.139,2.139,0,0,1-.19-.13c.06.04.13.08.19.12a52.362,52.362,0,0,1,16.48-17.9c17.08-9.31,33.76-8.4,50.06,1.97a49.041,49.041,0,0,1,16.62,24.02c.45,3.49,1.5,7.04,1.21,10.48" transform="translate(2697 321.685)" fill="#3646cd"/>
    <path id="Tracé_7392" data-name="Tracé 7392" d="M618.85,235.67v.01a2.139,2.139,0,0,1-.19-.13c.06.04.13.08.19.12" transform="translate(2697 321.685)" fill="#3646cd"/>
    <path id="Tracé_7393" data-name="Tracé 7393" d="M618.85,235.67v.01a2.139,2.139,0,0,1-.19-.13c.06.04.13.08.19.12" transform="translate(2697 321.685)" fill="#3646cd"/>
  </g>
</svg>
