<svg fill="red" id="Groupe_6396" data-name="Groupe 6396" xmlns="http://www.w3.org/2000/svg" xmlns:xlink="http://www.w3.org/1999/xlink" width="380.652" height="511.058" viewBox="0 0 380.652 511.058">
  <defs>
    <clipPath id="clip-path">
      <rect id="Rectangle_4012" data-name="Rectangle 4012" width="380.652" height="511.058"/>
    </clipPath>
  </defs>
  <g id="Groupe_6395" data-name="Groupe 6395" clip-path="url(#clip-path)">
    <path id="Tracé_7382" data-name="Tracé 7382" d="M208.414,0c6.3,6.691,10.694,14.754,15.811,22.281,15.129,22.261,30.033,44.676,45.082,66.992,1.451,2.151,2.863,4.144,1.441,6.8-1.407,2.631-3.853,2.764-6.451,2.744-7.651-.056-15.306.115-22.953-.084-3.121-.082-3.9.982-3.89,4q.14,52.9.043,105.793c0,2.019-.23,3.838,2.568,4.48a153.782,153.782,0,0,1,44.374,17.918c0-10.862-.032-20.914.022-30.965.013-2.608-1.71-2.352-3.381-2.353-7.485,0-14.971-.038-22.456.005-2.716.015-5.439.171-6.9-2.781-1.307-2.651.02-4.741,1.468-6.88q28.917-42.73,57.8-85.485c3.15-4.651,6.591-4.691,9.724-.086q29.166,42.873,58.238,85.81c1.474,2.172,2.415,4.5.988,6.974-1.333,2.314-3.689,2.482-6.124,2.462-7.485-.063-14.974.1-22.455-.086-3.077-.077-4.316.57-4.3,4.034q.2,50.65.045,101.3a18.127,18.127,0,0,0,1.319,6.276c31.666,87.9-24.147,183.9-116.108,199.708-82.208,14.132-160.448-41.32-174.414-123.78A147.987,147.987,0,0,1,64.5,309.967a24.406,24.406,0,0,0,1.448-8.272c-.027-30.773-.072-61.547.059-92.319.015-3.6-.752-4.979-4.657-4.807-7.471.329-14.968.162-22.452.064-5.979-.078-8.01-3.852-4.639-8.874Q63.3,152.5,92.5,109.353c3.178-4.695,6.621-4.7,9.8,0q29.31,43.373,58.437,86.868c2.948,4.4.823,8.291-4.466,8.385-7.815.139-15.642.249-23.45-.025-3.62-.127-4.525,1.134-4.421,4.518.214,6.972.064,13.955.064,21.58,5.267-2.634,10.063-5.1,14.917-7.446a123.474,123.474,0,0,1,28.132-9.725c2.831-.6,3.994-1.772,3.982-4.947q-.2-52.9-.008-105.793c.013-3.478-1.26-4.107-4.335-4.031-7.481.185-14.969.024-22.454.078-2.641.019-4.882-.412-6.327-3-1.459-2.611.065-4.481,1.338-6.374Q172.5,46.625,201.358,3.852C202.273,2.5,203.4,1.281,204.422,0ZM347.3,360.485c.771-73.136-58.676-139.028-136.962-140.92-82.672-2-144.469,65.453-144.615,140.419-.15,77.084,63.08,140.6,140.376,140.918,77.541.324,140.944-62.728,141.2-140.417M156.19,88.714c8.4,0,15.543.09,22.681-.032,4.634-.08,6.675,2,6.623,6.6-.09,8.149-.014,16.3-.014,24.45,0,28.775.055,57.55-.068,86.324-.016,3.676.468,4.551,4.619,3.987a121.9,121.9,0,0,1,32.319-.09c4.891.645,5.336-.53,5.319-4.759-.145-36.092-.089-72.186-.076-108.279,0-6.824,1.373-8.191,8.088-8.208,6.747-.017,13.494,0,19.979,0a2.231,2.231,0,0,0-.449-2.754c-15.525-23-31.125-45.946-46.568-69-2.367-3.533-3.271-1.567-4.685.548q-14.272,21.338-28.612,42.63c-6.178,9.2-12.345,18.418-19.156,28.583M265.5,187.651c7.845,0,14.472-.015,21.1.005,6.881.02,8.222,1.287,8.245,8.075.043,12.636.058,25.272-.038,37.908a6.856,6.856,0,0,0,3.017,6.248,147.6,147.6,0,0,1,36.758,40.239c.514.829.7,2.348,2.495,1.965q0-43.4.007-86.79c0-6.352,1.263-7.622,7.495-7.649,6.9-.03,13.8-.007,21.682-.007l-50.533-74.728c-16.847,25.068-33.213,49.417-50.228,74.734M77.235,282.339a151.961,151.961,0,0,1,39.3-43.32c1.92-1.428,2.016-3.2,2.009-5.237q-.051-15.205-.02-30.413c.006-7.931.86-8.767,8.907-8.775,6.5-.006,13.007,0,20.347,0L97.2,119.79c-16.778,24.979-33.258,49.514-50.245,74.8,7.632,0,14.081-.007,20.531,0,7.655.011,8.864,1.219,8.868,8.993q.018,36.4.032,72.793c0,1.746-.484,3.586.848,5.959"/>
    <path id="Tracé_7383" data-name="Tracé 7383" d="M30.214,28.87c9.306.067,15.031,7.619,12.16,17.273C38.439,59.37,29.406,68.09,15.992,71.5,7.129,73.762-.037,67.607,0,58.613.055,45.191,16.734,28.772,30.214,28.87m2.591,13.413c.272-2.972-1.487-3.584-4.043-3.262-7.389.93-17.9,11.427-18.742,18.7-.275,2.389.564,3.894,3.142,3.982,7.225.247,19.633-11.973,19.643-19.422"/>
    <path id="Tracé_7384" data-name="Tracé 7384" d="M85.711,85.129c-.154,13.407-16.467,29.6-29.786,29.575A12.714,12.714,0,0,1,43.059,99.862C44.788,87.314,58.008,73.842,70.4,72c8.945-1.332,15.41,4.215,15.307,13.132m-10-.175c.388-3-1.572-3.347-4.046-3.06-7.272.845-17.826,11.559-18.681,18.925-.325,2.8.871,4.05,3.666,3.9C64.1,104.329,75.7,92.455,75.713,84.954"/>
    <path id="Tracé_7385" data-name="Tracé 7385" d="M78.085,40.918a7.818,7.818,0,0,1-2.7,5.8q-28.821,28.665-57.63,57.344c-2.423,2.413-5.165,4.3-8.207,1.483-3.268-3.022-1.557-5.927,1.063-8.54Q39.742,67.939,68.823,38.827c1.967-1.972,4.018-2.929,6.667-1.733a4.271,4.271,0,0,1,2.6,3.824"/>
    <path id="Tracé_7386" data-name="Tracé 7386" d="M206.422,481.787c-66.8-.088-121.354-54.955-121.136-121.837A121.463,121.463,0,0,1,207.279,238.557c66.415.169,120.867,55.031,120.828,121.738s-55,121.579-121.685,121.492M95.166,360.129A111.245,111.245,0,0,0,206.495,471.337c61.68,0,111.836-50.081,111.666-111.495-.169-61.153-50.426-111.165-111.7-111.152-61.219.014-111.48,50.339-111.3,111.439"/>
    <path id="Tracé_7387" data-name="Tracé 7387" d="M211.486,321.38c0,9.48.222,18.967-.1,28.436-.138,4.017.9,5.621,5.019,6.531a43.676,43.676,0,0,1,27.7,65.839,42.321,42.321,0,0,1-28.142,19.758c-3.522.745-4.924,1.8-4.539,5.377.39,3.631-.291,6.952-4.96,6.876s-5.11-3.585-4.873-7.087c.218-3.223-.78-4.44-4.19-5.15-18.628-3.877-32.149-18.8-34.7-37.781a39.323,39.323,0,0,1-.187-4.481c-.065-3.5,1.9-5.352,5.169-5.349,3.107,0,4.736,1.975,4.9,5.135.5,9.7,4,18.041,11.216,24.727a34.24,34.24,0,0,0,14.25,7.856c2.294.647,3.58.372,3.56-2.688-.13-20.289-.1-40.58-.024-60.87.01-2.614-.751-3.685-3.468-4.274-21.251-4.608-35.522-21.813-35.613-42.633-.092-21.12,13.81-38.567,34.851-43.256,3.587-.8,4.587-2.306,4.234-5.643-.374-3.544.841-6.705,4.755-6.829,4.279-.135,5.665,3.1,5.086,6.87-.613,4,1.491,4.935,4.788,5.659a43.471,43.471,0,0,1,34.37,40.1c.246,3.718-.165,7.085-4.536,7.358-4.609.288-5.5-3.132-5.706-7.03a34.1,34.1,0,0,0-24.168-30.39c-3.445-1-4.946-.824-4.8,3.506.334,9.8.1,19.621.108,29.434m28.932,77.649a33.77,33.77,0,0,0-24.067-32.366c-3.418-1.016-5.005-.8-4.956,3.55q.322,28.87.01,57.745c-.038,3.927.958,4.944,4.754,3.842a34.036,34.036,0,0,0,24.259-32.771m-38.877-111.2c-15.634,1.9-27.564,14.993-28.863,31.244-1.209,15.119,9.135,29.739,24.079,34.456,3.66,1.156,4.918.825,4.867-3.426-.2-16.943-.084-33.891-.083-50.836V287.833"/>
  </g>
</svg>
